<svg xmlns="http://www.w3.org/2000/svg" xmlns:xlink="http://www.w3.org/1999/xlink" style="margin:auto;background:#f1f1f1;display:block;z-index:1;position:relative" width="1440" height="740" preserveAspectRatio="xMidYMid" viewBox="0 0 1440 740">
<g transform=""><path id="path0" d="M 966.5660265966538 313.2365669198082
c 0 26.644407486895854 -6.519376299985155 7.653180873895618 -14.172557173880772 7.653180873895618
S 938.2209122488922 339.880974406704 938.2209122488922 313.2365669198082
s 6.519376299985155 -7.653180873895618 14.172557173880772 -7.653180873895618
S 966.5660265966538 286.59215943291235 966.5660265966538 313.2365669198082
z" fill="none" stroke="none"></path>
<circle cx="0" cy="0" r="7.104400617039886" fill="#e0ff77">
  <animateMotion begin="-7.291275825917256s" dur="10s" repeatCount="indefinite">
    <mpath xlink:href="#path0"></mpath>
  </animateMotion>
</circle><path id="path1" d="M 1407.5377393463689 226.0153875009859
c 0 29.60871982027478 -7.2446867645353175 8.50463228880233 -15.749319053337647 8.50463228880233
S 1376.0391012396938 255.62410732126068 1376.0391012396938 226.0153875009859
s 7.2446867645353175 -8.50463228880233 15.749319053337647 -8.50463228880233
S 1407.5377393463689 196.4066676807111 1407.5377393463689 226.0153875009859
z" fill="none" stroke="none"></path>
<circle cx="0" cy="0" r="4.740410424612782" fill="#de9dd6">
  <animateMotion begin="-3.054293373176864s" dur="10s" repeatCount="indefinite">
    <mpath xlink:href="#path1"></mpath>
  </animateMotion>
</circle><path id="path2" d="M 837.3642611568952 229.75556952987012
c 0 34.08800257922159 -8.340681482149963 9.791234783393435 -18.131916265543396 9.791234783393435
S 801.1004286258084 263.8435721090917 801.1004286258084 229.75556952987012
s 8.340681482149963 -9.791234783393435 18.131916265543396 -9.791234783393435
S 837.3642611568952 195.66756695064853 837.3642611568952 229.75556952987012
z" fill="none" stroke="none"></path>
<circle cx="0" cy="0" r="7.7983226111224875" fill="#de9dd6">
  <animateMotion begin="-6.26923859053651s" dur="10s" repeatCount="indefinite">
    <mpath xlink:href="#path2"></mpath>
  </animateMotion>
</circle><path id="path3" d="M 1056.2379071356324 459.8917436926075
c 0 29.20208558400194 -7.145191153532388 8.387833093277154 -15.533024246809541 8.387833093277154
S 1025.1718586420131 489.0938292766095 1025.1718586420131 459.8917436926075
s 7.145191153532388 -8.387833093277154 15.533024246809541 -8.387833093277154
S 1056.2379071356324 430.68965810860556 1056.2379071356324 459.8917436926075
z" fill="none" stroke="none"></path>
<circle cx="0" cy="0" r="4.587906027977793" fill="#e0ff77">
  <animateMotion begin="-8.915860364852662s" dur="10s" repeatCount="indefinite">
    <mpath xlink:href="#path3"></mpath>
  </animateMotion>
</circle><path id="path4" d="M 900.4534048511454 518.2970178900212
c 0 27.847770247630883 -6.813816124420322 7.998827624319509 -14.81264374873983 7.998827624319509
S 870.8281173536658 546.1447881376521 870.8281173536658 518.2970178900212
s 6.813816124420322 -7.998827624319509 14.81264374873983 -7.998827624319509
S 900.4534048511454 490.4492476423903 900.4534048511454 518.2970178900212
z" fill="none" stroke="none"></path>
<circle cx="0" cy="0" r="5.348001915056167" fill="#51cacc">
  <animateMotion begin="-2.688817295448609s" dur="10s" repeatCount="indefinite">
    <mpath xlink:href="#path4"></mpath>
  </animateMotion>
</circle><path id="path5" d="M 866.2928047581325 378.04392718025827
c 0 20.526672581744712 -5.022483716809877 5.8959591458202905 -10.918442862630167 5.8959591458202905
S 844.4559190328722 398.570599762003 844.4559190328722 378.04392718025827
s 5.022483716809877 -5.8959591458202905 10.918442862630167 -5.8959591458202905
S 866.2928047581325 357.51725459851355 866.2928047581325 378.04392718025827
z" fill="none" stroke="none"></path>
<circle cx="0" cy="0" r="6.889140999606638" fill="#51cacc">
  <animateMotion begin="-5.568168852822288s" dur="10s" repeatCount="indefinite">
    <mpath xlink:href="#path5"></mpath>
  </animateMotion>
</circle><path id="path6" d="M 55.581421390649496 628.5468456050303
c 0 28.307823138727596 -6.92638225734824 8.1309704760175 -15.057352733365741 8.1309704760175
S 25.466715923918017 656.8546687437579 25.466715923918017 628.5468456050303
s 6.92638225734824 -8.1309704760175 15.057352733365741 -8.1309704760175
S 55.581421390649496 600.2390224663027 55.581421390649496 628.5468456050303
z" fill="none" stroke="none"></path>
<circle cx="0" cy="0" r="6.225445609649297" fill="#e0ff77">
  <animateMotion begin="-9.714919498294103s" dur="10s" repeatCount="indefinite">
    <mpath xlink:href="#path6"></mpath>
  </animateMotion>
</circle><path id="path7" d="M 1434.9067812494595 403.51324039626564
c 0 32.90954217332364 -8.052334787089826 9.452740837018494 -17.50507562410832 9.452740837018494
S 1399.896630001243 436.4227825695893 1399.896630001243 403.51324039626564
s 8.052334787089826 -9.452740837018494 17.50507562410832 -9.452740837018494
S 1434.9067812494595 370.603698222942 1434.9067812494595 403.51324039626564
z" fill="none" stroke="none"></path>
<circle cx="0" cy="0" r="5.29010409040787" fill="#9df871">
  <animateMotion begin="-2.797301042467506s" dur="10s" repeatCount="indefinite">
    <mpath xlink:href="#path7"></mpath>
  </animateMotion>
</circle><path id="path8" d="M 767.6832239620127 61.83144135814139
c 0 23.29861974956827 -5.700726108936916 6.69215673657812 -12.392882845515036 6.69215673657812
S 742.8974582709826 85.13006110770966 742.8974582709826 61.83144135814139
s 5.700726108936916 -6.69215673657812 12.392882845515036 -6.69215673657812
S 767.6832239620127 38.532821608573116 767.6832239620127 61.83144135814139
z" fill="none" stroke="none"></path>
<circle cx="0" cy="0" r="5.732802190820414" fill="#51cacc">
  <animateMotion begin="-6.879851994947266s" dur="10s" repeatCount="indefinite">
    <mpath xlink:href="#path8"></mpath>
  </animateMotion>
</circle><path id="path9" d="M 1019.7108334468742 522.2170223763511
c 0 20.334058408149527 -4.975354716887649 5.840633798085502 -10.815988514973151 5.840633798085502
S 998.0788564169279 542.5510807845006 998.0788564169279 522.2170223763511
s 4.975354716887649 -5.840633798085502 10.815988514973151 -5.840633798085502
S 1019.7108334468742 501.8829639682016 1019.7108334468742 522.2170223763511
z" fill="none" stroke="none"></path>
<circle cx="0" cy="0" r="4.512986210991339" fill="#9df871">
  <animateMotion begin="-5.121511844876014s" dur="10s" repeatCount="indefinite">
    <mpath xlink:href="#path9"></mpath>
  </animateMotion>
</circle><path id="path10" d="M 1238.8206937983668 252.79443170801488
c 0 30.000185979828867 -7.3404710376177 8.617074696333823 -15.957545733951523 8.617074696333823
S 1206.9056023304638 282.79461768784375 1206.9056023304638 252.79443170801488
s 7.3404710376177 -8.617074696333823 15.957545733951523 -8.617074696333823
S 1238.8206937983668 222.794245728186 1238.8206937983668 252.79443170801488
z" fill="none" stroke="none"></path>
<circle cx="0" cy="0" r="5.779705624471404" fill="#e0ff77">
  <animateMotion begin="-5.103654928813404s" dur="10s" repeatCount="indefinite">
    <mpath xlink:href="#path10"></mpath>
  </animateMotion>
</circle><path id="path11" d="M 1298.249437137948 667.7766062580147
c 0 27.036619031301207 -6.615342954467316 7.765837381331198 -14.381180335798513 7.765837381331198
S 1269.487076466351 694.8132252893159 1269.487076466351 667.7766062580147
s 6.615342954467316 -7.765837381331198 14.381180335798513 -7.765837381331198
S 1298.249437137948 640.7399872267134 1298.249437137948 667.7766062580147
z" fill="none" stroke="none"></path>
<circle cx="0" cy="0" r="6.0868971715589595" fill="#51cacc">
  <animateMotion begin="-0.9670914215563275s" dur="10s" repeatCount="indefinite">
    <mpath xlink:href="#path11"></mpath>
  </animateMotion>
</circle><path id="path12" d="M 822.5431565423105 8.01563358718393
c 0 35.24098452786183 -8.62279408660449 10.122410449492229 -18.74520453609672 10.122410449492229
S 785.0527474701171 43.25661811504576 785.0527474701171 8.01563358718393
s 8.62279408660449 -10.122410449492229 18.74520453609672 -10.122410449492229
S 822.5431565423105 -27.225350940677906 822.5431565423105 8.01563358718393
z" fill="none" stroke="none"></path>
<circle cx="0" cy="0" r="6.244775247600387" fill="#ff708e">
  <animateMotion begin="-4.033790719022575s" dur="10s" repeatCount="indefinite">
    <mpath xlink:href="#path12"></mpath>
  </animateMotion>
</circle><path id="path13" d="M 1143.8994266059144 363.61536208210015
c 0 31.645429209218634 -7.743030551191792 9.089644560094714 -16.832675111286505 9.089644560094714
S 1110.2340763833413 395.2607912913188 1110.2340763833413 363.61536208210015
s 7.743030551191792 -9.089644560094714 16.832675111286505 -9.089644560094714
S 1143.8994266059144 331.9699328728815 1143.8994266059144 363.61536208210015
z" fill="none" stroke="none"></path>
<circle cx="0" cy="0" r="4.521723277572528" fill="#de9dd6">
  <animateMotion begin="-1.4941603844783158s" dur="10s" repeatCount="indefinite">
    <mpath xlink:href="#path13"></mpath>
  </animateMotion>
</circle><path id="path14" d="M 1000.8659487743842 279.6927083058147
c 0 26.2256361491812 -6.416910972671995 7.53289548965843 -13.949806462330425 7.53289548965843
S 972.9663358497232 305.91834445499586 972.9663358497232 279.6927083058147
s 6.416910972671995 -7.53289548965843 13.949806462330425 -7.53289548965843
S 1000.8659487743842 253.4670721566335 1000.8659487743842 279.6927083058147
z" fill="none" stroke="none"></path>
<circle cx="0" cy="0" r="5.190667698452708" fill="#51cacc">
  <animateMotion begin="-5.360538290100809s" dur="10s" repeatCount="indefinite">
    <mpath xlink:href="#path14"></mpath>
  </animateMotion>
</circle><path id="path15" d="M 285.5536293800813 554.3712507073694
c 0 20.682587266111337 -5.06063305447405 5.9407431509043205 -11.00137620537837 5.9407431509043205
S 263.5508769693245 575.0538379734808 263.5508769693245 554.3712507073694
s 5.06063305447405 -5.9407431509043205 11.00137620537837 -5.9407431509043205
S 285.5536293800813 533.6886634412581 285.5536293800813 554.3712507073694
z" fill="none" stroke="none"></path>
<circle cx="0" cy="0" r="6.623427811684561" fill="#ff708e">
  <animateMotion begin="-9.888371293329005s" dur="10s" repeatCount="indefinite">
    <mpath xlink:href="#path15"></mpath>
  </animateMotion>
</circle><path id="path16" d="M 996.7223131411772 20.222787452862615
c 0 30.274517280758015 -7.407594653802493 8.695871984898579 -16.10346663870107 8.695871984898579
S 964.515379863775 50.49730473362063 964.515379863775 20.222787452862615
s 7.407594653802493 -8.695871984898579 16.10346663870107 -8.695871984898579
S 996.7223131411772 -10.0517298278954 996.7223131411772 20.222787452862615
z" fill="none" stroke="none"></path>
<circle cx="0" cy="0" r="5.607049773173833" fill="#51cacc">
  <animateMotion begin="-4.371034821781626s" dur="10s" repeatCount="indefinite">
    <mpath xlink:href="#path16"></mpath>
  </animateMotion>
</circle><path id="path17" d="M 576.8850733443045 634.723944292905
c 0 28.566003671105953 -6.98955408973869 8.205128714041072 -15.194682803779763 8.205128714041072
S 546.495707736745 663.2899479640109 546.495707736745 634.723944292905
s 6.98955408973869 -8.205128714041072 15.194682803779763 -8.205128714041072
S 576.8850733443045 606.1579406217991 576.8850733443045 634.723944292905
z" fill="none" stroke="none"></path>
<circle cx="0" cy="0" r="4.596905055575675" fill="#9df871">
  <animateMotion begin="-4.533304921833736s" dur="10s" repeatCount="indefinite">
    <mpath xlink:href="#path17"></mpath>
  </animateMotion>
</circle><path id="path18" d="M 1426.1883002988625 711.3631227832846
c 0 32.590659045042294 -7.97431019187205 9.361146746980234 -17.335456938852282 9.361146746980234
S 1391.5173864211579 743.9537818283269 1391.5173864211579 711.3631227832846
s 7.97431019187205 -9.361146746980234 17.335456938852282 -9.361146746980234
S 1426.1883002988625 678.7724637382422 1426.1883002988625 711.3631227832846
z" fill="none" stroke="none"></path>
<circle cx="0" cy="0" r="7.519913823456443" fill="#9df871">
  <animateMotion begin="-7.2553261880023046s" dur="10s" repeatCount="indefinite">
    <mpath xlink:href="#path18"></mpath>
  </animateMotion>
</circle><path id="path19" d="M 774.3721669145239 374.2053317627675
c 0 36.40710092973664 -8.90812044025471 10.457358777690311 -19.365479217945023 10.457358777690311
S 735.6412084786339 410.61243269250417 735.6412084786339 374.2053317627675
s 8.90812044025471 -10.457358777690311 19.365479217945023 -10.457358777690311
S 774.3721669145239 337.79823083303086 774.3721669145239 374.2053317627675
z" fill="none" stroke="none"></path>
<circle cx="0" cy="0" r="6.753091005868945" fill="#ff708e">
  <animateMotion begin="-3.3611134496546957s" dur="10s" repeatCount="indefinite">
    <mpath xlink:href="#path19"></mpath>
  </animateMotion>
</circle><path id="path20" d="M 250.838675065647 54.06186439622133
c 0 20.545117795810032 -5.026996907485433 5.901257239222031 -10.928254146707463 5.901257239222031
S 228.98216677223206 74.60698219203137 228.98216677223206 54.06186439622133
s 5.026996907485433 -5.901257239222031 10.928254146707463 -5.901257239222031
S 250.838675065647 33.516746600411295 250.838675065647 54.06186439622133
z" fill="none" stroke="none"></path>
<circle cx="0" cy="0" r="4.347224301982931" fill="#de9dd6">
  <animateMotion begin="-5.580260407225892s" dur="10s" repeatCount="indefinite">
    <mpath xlink:href="#path20"></mpath>
  </animateMotion>
</circle><path id="path21" d="M 55.430550029557565 463.6644103213997
c 0 21.895174065341763 -5.357329824498516 6.289039359193911 -11.646369183692427 6.289039359193911
S 32.13781166217271 485.55958438674145 32.13781166217271 463.6644103213997
s 5.357329824498516 -6.289039359193911 11.646369183692427 -6.289039359193911
S 55.430550029557565 441.769236256058 55.430550029557565 463.6644103213997
z" fill="none" stroke="none"></path>
<circle cx="0" cy="0" r="7.243911395500387" fill="#de9dd6">
  <animateMotion begin="-0.09626942667848803s" dur="10s" repeatCount="indefinite">
    <mpath xlink:href="#path21"></mpath>
  </animateMotion>
</circle><path id="path22" d="M 500.8022008155814 292.8741179860297
c 0 36.52858471186313 -8.937845195455873 10.492253055535155 -19.43009825099103 10.492253055535155
S 461.94200431359934 329.40270269789283 461.94200431359934 292.8741179860297
s 8.937845195455873 -10.492253055535155 19.43009825099103 -10.492253055535155
S 500.8022008155814 256.3455332741666 500.8022008155814 292.8741179860297
z" fill="none" stroke="none"></path>
<circle cx="0" cy="0" r="5.971555200093035" fill="#9df871">
  <animateMotion begin="-3.2585697001596725s" dur="10s" repeatCount="indefinite">
    <mpath xlink:href="#path22"></mpath>
  </animateMotion>
</circle><path id="path23" d="M 696.8045756297724 650.8146812003562
c 0 22.72355384503885 -5.560018493998866 6.526978232085627 -12.086996726084493 6.526978232085627
S 672.6305821776034 673.538235045395 672.6305821776034 650.8146812003562
s 5.560018493998866 -6.526978232085627 12.086996726084493 -6.526978232085627
S 696.8045756297724 628.0911273553173 696.8045756297724 650.8146812003562
z" fill="none" stroke="none"></path>
<circle cx="0" cy="0" r="4.146347808618492" fill="#9df871">
  <animateMotion begin="-7.097730851899193s" dur="10s" repeatCount="indefinite">
    <mpath xlink:href="#path23"></mpath>
  </animateMotion>
</circle><path id="path24" d="M 1261.5798795434534 399.175697224893
c 0 30.155451318714963 -7.378461492877064 8.661672187290469 -16.040133680167532 8.661672187290469
S 1229.4996121831182 429.3311485436079 1229.4996121831182 399.175697224893
s 7.378461492877064 -8.661672187290469 16.040133680167532 -8.661672187290469
S 1261.5798795434534 369.02024590617805 1261.5798795434534 399.175697224893
z" fill="none" stroke="none"></path>
<circle cx="0" cy="0" r="5.314306437819507" fill="#de9dd6">
  <animateMotion begin="-3.9834716256886193s" dur="10s" repeatCount="indefinite">
    <mpath xlink:href="#path24"></mpath>
  </animateMotion>
</circle><path id="path25" d="M 474.9117581514189 9.230273913312264
c 0 19.94380750481957 -4.879867793732448 5.728540453512005 -10.608408247244451 5.728540453512005
S 453.69494165693004 29.174081418131834 453.69494165693004 9.230273913312264
s 4.879867793732448 -5.728540453512005 10.608408247244451 -5.728540453512005
S 474.9117581514189 -10.713533591507307 474.9117581514189 9.230273913312264
z" fill="none" stroke="none"></path>
<circle cx="0" cy="0" r="4.787314909310156" fill="#ff708e">
  <animateMotion begin="-2.389872589226252s" dur="10s" repeatCount="indefinite">
    <mpath xlink:href="#path25"></mpath>
  </animateMotion>
</circle><path id="path26" d="M 420.17641604455224 282.72796145119304
c 0 37.52104680097612 -9.180681664068624 10.777321953471866 -19.95800361754049 10.777321953471866
S 380.26040880947124 320.2490082521692 380.26040880947124 282.72796145119304
s 9.180681664068624 -10.777321953471866 19.95800361754049 -10.777321953471866
S 420.17641604455224 245.2069146502169 420.17641604455224 282.72796145119304
z" fill="none" stroke="none"></path>
<circle cx="0" cy="0" r="5.233261898113592" fill="#de9dd6">
  <animateMotion begin="-5.100427443575368s" dur="10s" repeatCount="indefinite">
    <mpath xlink:href="#path26"></mpath>
  </animateMotion>
</circle><path id="path27" d="M 1134.2598968556551 125.22976603500737
c 0 29.51341476158389 -7.221367441664142 8.477257431518776 -15.698624873182919 8.477257431518776
S 1102.8626471092891 154.74318079659128 1102.8626471092891 125.22976603500737
s 7.221367441664142 -8.477257431518776 15.698624873182919 -8.477257431518776
S 1134.2598968556551 95.71635127342348 1134.2598968556551 125.22976603500737
z" fill="none" stroke="none"></path>
<circle cx="0" cy="0" r="5.043580118232875" fill="#de9dd6">
  <animateMotion begin="-3.7402185181136693s" dur="10s" repeatCount="indefinite">
    <mpath xlink:href="#path27"></mpath>
  </animateMotion>
</circle><path id="path28" d="M 1384.5988726866847 593.451317764267
c 0 31.693941084986257 -7.754900478241318 9.103578822283287 -16.858479300524603 9.103578822283287
S 1350.8819140856356 625.1452588492532 1350.8819140856356 593.451317764267
s 7.754900478241318 -9.103578822283287 16.858479300524603 -9.103578822283287
S 1384.5988726866847 561.7573766792807 1384.5988726866847 593.451317764267
z" fill="none" stroke="none"></path>
<circle cx="0" cy="0" r="7.5382393464890765" fill="#9df871">
  <animateMotion begin="-9.535226592229s" dur="10s" repeatCount="indefinite">
    <mpath xlink:href="#path28"></mpath>
  </animateMotion>
</circle><path id="path29" d="M 838.205122194085 530.6364689423125
c 0 34.79035691609981 -8.512534139045698 9.992974858879734 -18.505508997925432 9.992974858879734
S 801.1941041982342 565.4268258584123 801.1941041982342 530.6364689423125
s 8.512534139045698 -9.992974858879734 18.505508997925432 -9.992974858879734
S 838.205122194085 495.84611202621267 838.205122194085 530.6364689423125
z" fill="none" stroke="none"></path>
<circle cx="0" cy="0" r="7.581219911385843" fill="#ff708e">
  <animateMotion begin="-1.158312805734223s" dur="10s" repeatCount="indefinite">
    <mpath xlink:href="#path29"></mpath>
  </animateMotion>
</circle></g>
</svg>